<?xml version="1.0" encoding="utf-8"?>
<!-- Generator: Adobe Illustrator 16.0.0, SVG Export Plug-In . SVG Version: 6.00 Build 0)  -->
<!DOCTYPE svg PUBLIC "-//W3C//DTD SVG 1.1//EN" "http://www.w3.org/Graphics/SVG/1.1/DTD/svg11.dtd">
<svg version="1.1" id="Layer_1" xmlns="http://www.w3.org/2000/svg" xmlns:xlink="http://www.w3.org/1999/xlink" x="0px" y="0px"
	 width="24px" height="24px" viewBox="0 0 24 24" enable-background="new 0 0 24 24" xml:space="preserve">
<path fill="none" d="M0,0h24v24H0V0z"/>
<circle fill="#006600" cx="4.5" cy="9.5" r="2.5"/>
<circle fill="#006600" cx="9" cy="5.5" r="2.5"/>
<circle fill="#006600" cx="15" cy="5.5" r="2.5"/>
<circle fill="#006600" cx="19.5" cy="9.5" r="2.5"/>
<path fill="#006600" d="M17.34,14.859c-0.869-1.021-1.6-1.889-2.48-2.909c-0.459-0.54-1.049-1.08-1.75-1.32
	c-0.107-0.04-0.219-0.07-0.33-0.09C12.529,10.5,12.26,10.5,12,10.5s-0.53,0-0.79,0.05c-0.11,0.02-0.22,0.05-0.33,0.09
	c-0.7,0.24-1.28,0.78-1.75,1.32c-0.87,1.021-1.6,1.89-2.48,2.91c-1.31,1.31-2.92,2.76-2.62,4.79c0.29,1.02,1.02,2.029,2.33,2.32
	c0.73,0.147,3.06-0.44,5.54-0.44h0.18c2.48,0,4.811,0.58,5.54,0.44c1.31-0.291,2.04-1.313,2.33-2.32
	C20.26,17.62,18.65,16.17,17.34,14.859z"/>
</svg>
